<svg width="251" height="54" viewBox="0 0 251 54" xmlns="http://www.w3.org/2000/svg"><g fill="none"><path fill="#EE7623" d="M1.607.714h138.929v52.143H1.607z"/><path d="M52.143 9.107a4.801 4.801 0 014.821 4.822v30.535h-8.75V16.25c0-.357-.178-.536-.535-.536h-9.643v28.75H29.82v-28.75h-9.464c-.357 0-.536.357-.536.536v28.214h-8.57V9.107h40.893zm18.928 35.357a4.801 4.801 0 01-4.821-4.821V9.107h27.857v6.429H75.18c-.358 0-.536.357-.536.535v6.786H93.57v6.429H74.643v7.678c0 .357.357.536.536.536H95v6.786H71.071v.178zm37.143 0a4.801 4.801 0 01-4.821-4.821V9.286h27.857v6.428h-18.929c-.357 0-.535.357-.535.536v6.786h18.928v6.428h-19.107v7.679c0 .357.179.536.536.536h20v6.785h-23.929z" fill="#FFF"/><path d="M156.786 21.607l-3.036-6.071h-2.143v6.071h-3.036V6.25h5.893c3.036 0 5 2.143 5 4.643 0 2.143-1.25 3.393-2.857 3.928L160 21.43h-3.214v.178zM154.464 8.93h-2.857v4.107h2.857c1.25 0 2.143-.893 2.143-1.965 0-1.25-.893-2.142-2.143-2.142zm15.715 11.427c-.715.714-1.786 1.429-3.393 1.429-1.607 0-2.679-.715-3.393-1.429-1.072-1.071-1.25-2.321-1.25-4.286 0-1.964.178-3.214 1.25-4.285.714-.715 1.786-1.429 3.393-1.429 1.607 0 2.857.714 3.393 1.429 1.071 1.071 1.25 2.321 1.25 4.285 0 1.965-.179 3.215-1.25 4.286zm-2.143-7.143c-.357-.357-.715-.535-1.25-.535-.536 0-.893.178-1.25.535-.536.536-.715 1.607-.715 2.679 0 1.071 0 2.143.715 2.678.357.358.714.536 1.25.536.535 0 1.071-.178 1.25-.536.535-.535.714-1.607.714-2.678-.179-1.072-.179-1.964-.714-2.679zm9.464 8.393c-2.321 0-3.214-1.607-3.214-3.214v-5.536h-1.072v-2.143h1.25V7.5h2.857v3.214h1.965v2.143h-1.965v5.357c0 .715.358 1.072.893 1.072h1.072v2.321H177.5zm7.679 0c-2.322 0-3.215-1.607-3.215-3.214v-5.536h-1.25v-2.143h1.25V7.5h2.857v3.214h1.965v2.143h-1.965v5.357c0 .715.358 1.072.893 1.072h1.072v2.321h-1.607zm6.071-4.821c0 1.428.893 2.5 2.5 2.5 1.25 0 1.786-.357 2.5-1.072l1.607 1.607c-1.071 1.072-2.143 1.786-4.286 1.786-2.678 0-5.178-1.25-5.178-5.714 0-3.572 1.964-5.714 4.821-5.714 3.036 0 4.822 2.321 4.822 5.357v1.25h-6.786zm4.107-3.036c-.357-.714-.893-1.071-1.786-1.071-.892 0-1.607.535-1.785 1.071-.179.357-.179.714-.179 1.25h4.286c-.357-.536-.357-.893-.536-1.25zm11.607-.357c-.357-.357-.714-.714-1.428-.714-.893 0-1.786.714-1.786 2.142v6.786h-2.857V10.536h2.678v1.071c.536-.714 1.608-1.25 2.858-1.25 1.071 0 1.785.357 2.678 1.072l-2.143 1.964zm9.286 8.214v-1.071c-.714.893-1.607 1.25-2.679 1.25-1.071 0-2.142-.357-2.678-1.072-1.072-1.071-1.072-3.035-1.072-4.643 0-1.607 0-3.571 1.072-4.642.536-.536 1.607-1.072 2.678-1.072 1.072 0 1.965.357 2.679 1.072V6.25h2.857v15.179h-2.857v.178zm-1.964-8.75c-1.607 0-1.965 1.429-1.965 3.214 0 1.786.179 3.215 1.965 3.215 1.785 0 1.964-1.429 1.964-3.215-.179-1.964-.357-3.214-1.964-3.214zm13.571 8.75v-.893c-.714.715-1.428 1.072-2.678 1.072s-2.143-.357-2.858-1.072c-.535-.535-.892-1.607-.892-2.5 0-1.785 1.25-3.214 3.75-3.214h2.678v-.536c0-1.25-.536-1.785-2.143-1.785-1.071 0-1.607.178-2.143.892l-1.785-1.785c1.071-1.25 2.143-1.607 4.107-1.607 3.214 0 4.821 1.25 4.821 3.928v7.322h-2.857v.178zm-.178-4.821h-2.143c-1.072 0-1.607.535-1.607 1.25 0 .714.535 1.25 1.607 1.25.714 0 1.25 0 1.785-.536.358-.357.358-.714.358-1.429v-.535zm18.75 4.821v-6.786c0-1.607-.893-1.964-1.786-1.964s-1.786.536-1.786 1.964v6.786H240v-6.786c0-1.607-.893-1.964-1.786-1.964s-1.785.536-1.785 1.964v6.786h-2.858V10.536h2.679v1.071c.714-.714 1.786-1.071 2.857-1.071 1.25 0 2.322.535 3.036 1.428.893-1.071 1.964-1.428 3.393-1.428 1.071 0 2.143.357 2.678 1.071.893.893 1.25 1.964 1.25 3.214v7.143h-3.035v-.357zm-89.643 25.714l-3.036-6.071h-2.143v6.071h-3.036V32.143h5.893c3.036 0 5 2.143 5 4.643 0 2.143-1.25 3.393-2.857 3.928L160 47.321h-3.214zm-2.322-12.678h-2.857v4.107h2.857c1.25 0 2.143-.893 2.143-1.964 0-1.25-.893-2.143-2.143-2.143zm7.857-.357v-2.322h2.858v2.322h-2.858zm.179 13.035V36.25h2.857v11.071H162.5zm5.357 4.108h-1.607v-2.322h1.071c.715 0 1.072-.357 1.072-1.071V36.07h2.857v12.143c-.179 1.607-1.071 3.215-3.393 3.215zm.357-17.143v-2.322h2.857v2.322h-2.857zm12.5 13.035v-6.785c0-1.607-.893-1.965-1.785-1.965-.893 0-1.786.536-1.786 1.965v6.785h-2.857V36.25h2.678v1.071c.715-.714 1.786-1.071 2.857-1.071 1.072 0 1.965.357 2.679 1.071.893.893 1.071 1.965 1.071 3.215v7.143h-2.857v-.358zm18.75 0v-6.785c0-1.607-.893-1.965-1.785-1.965-.893 0-1.786.536-1.786 1.965v6.785h-2.857v-6.785c0-1.607-.893-1.965-1.786-1.965s-1.786.536-1.786 1.965v6.785h-2.857V36.25h2.679v1.071c.714-.714 1.785-1.071 2.857-1.071 1.25 0 2.321.536 3.036 1.429.892-1.072 1.964-1.429 3.392-1.429 1.072 0 2.143.357 2.679 1.071.893.893 1.25 1.965 1.25 3.215v7.143h-3.036v-.358zm13.572-1.25c-.715.715-1.786 1.429-3.393 1.429-1.607 0-2.679-.714-3.393-1.429C205.179 45 205 43.75 205 41.786c0-1.965.179-3.215 1.25-4.286.714-.714 1.786-1.429 3.393-1.429 1.607 0 2.857.715 3.393 1.429 1.071 1.071 1.25 2.321 1.25 4.286 0 1.964-.357 3.214-1.25 4.285zm-2.143-7.142c-.357-.358-.714-.536-1.25-.536s-.893.178-1.25.536c-.536.535-.714 1.607-.714 2.678 0 1.072 0 2.143.714 2.679.357.357.714.535 1.25.535s1.071-.178 1.25-.535c.536-.536.714-1.607.714-2.679-.178-1.071-.178-2.143-.714-2.678zm12.5 8.392v-6.785c0-1.607-.893-1.965-1.786-1.965s-1.786.536-1.786 1.965v6.785h-2.857V36.25h2.679v1.071c.714-.714 1.786-1.071 2.857-1.071 1.071 0 1.964.357 2.679 1.071.892.893 1.071 1.965 1.071 3.215v7.143h-2.857v-.358zm11.964 0V46.25c-.714.893-1.607 1.25-2.678 1.25-1.072 0-2.143-.357-2.679-1.071-1.071-1.072-1.071-3.036-1.071-4.643 0-1.607 0-3.572 1.071-4.643.536-.536 1.607-1.072 2.679-1.072 1.071 0 1.964.358 2.678 1.072v-5h2.857V47.32h-2.857zm-1.964-8.75c-1.607 0-1.964 1.429-1.964 3.215 0 1.785.178 3.214 1.964 3.214s1.964-1.429 1.964-3.214c0-1.965-.357-3.215-1.964-3.215z" fill="#000"/></g></svg>